# xmcd
#
# Track frame offsets:
#	150
#	21320
#	40962
#	59122
#	73772
#	91070
#	107112
#	128679
#	142144
#	156759
#	176587
#	196074
#	213024
#	230619
#	247429
#
# Disc length: 3505
#
# Revision: 1
# Processed by: cddbd v1.5.2PL0 Copyright (c) Steve Scherf et al.
# Submitted via: kJams Pro (development) 1.0patch44.18
#
DISCID=df0daf0f
DTITLE=Various Artist - SC8566 Country Hits Vol. 118
DYEAR=1999
DGENRE=Country
TTITLE0=Garth Brooks As Chris Gaines - It Don't Matter To The Sun
TTITLE1=Brad Paisley - He Didn't Have To Be
TTITLE2=Keith Urban - It's A Love Thing
TTITLE3=Bruce Robison - The Good Life
TTITLE4=Joe Diffie - The Quittin' Kind
TTITLE5=SheDaisy - This Woman Needs
TTITLE6=Tracy Byrd - Put Your Hand In Mine
TTITLE7=Mindy McCready - All I Want Is Everthing
TTITLE8=Kenny Rogers - Slow Dance More
TTITLE9=Clint Black - When I Said I Do
TTITLE10=Trace Adkins - Don't Lie
TTITLE11=Lonestar - Smile
TTITLE12=Suzy Bogguss - Goodnight
TTITLE13=Reba McEntire - What Do You Say
TTITLE14=Claudia Church - It's All Your Fault
EXTD=
EXTT0=
EXTT1=
EXTT2=
EXTT3=
EXTT4=
EXTT5=
EXTT6=
EXTT7=
EXTT8=
EXTT9=
EXTT10=
EXTT11=
EXTT12=
EXTT13=
EXTT14=
PLAYORDER=
